<svg width="24" height="24" fill="none" xmlns="http://www.w3.org/2000/svg">
    <path d="m17.884 18.412-.122-.028-1.19-10.051.133-.05c1.142-.424 1.719-1.121 1.873-2.262l.284-3.493s-1.633-.661-2.484-.661h-.115l-.94 2.933H14.24l-.521-3.31s-1.116-.157-1.85-.157h-.006c-.73 0-1.849.156-1.849.156L9.494 4.8h-1.08l-.941-2.933h-.115c-.85 0-2.484.66-2.484.66l.284 3.488c.154 1.141.732 1.842 1.873 2.265l.133.051-1.19 10.051-.083.005c-1.849 0-2.429 2.442-2.424 4.279h16.8c.007-1.836-.532-4.254-2.383-4.254z" fill="#D2CEB4"/>
    <path opacity=".1" d="m17.884 18.412-.122-.028-1.19-10.051.132-.05c1.142-.424 1.72-1.121 1.873-2.262l.28-3.425a.475.475 0 0 0-.006-.025l-.199-.125a14.912 14.912 0 0 0-.906-.31c-.288 1.743-.669 4.245-1.494 4.962-.788.686-1.27.845-1.39.877a22.42 22.42 0 0 0-.742-.08c-2.428-.217-5.961.467-5.961.467s3.578-.214 5.407 2.053c.175.215.332.492.48.755 1.878 3.344 2.356 10.449 2.356 10.449L7.69 22.667h12.579c.005-1.837-.534-4.255-2.385-4.255z" fill="#000"/>
</svg>
