<svg width="24" height="24" fill="none" xmlns="http://www.w3.org/2000/svg">
    <path d="m15.116 6.086-.97 1.742c-.457.884-.893 1.842-1.156 2.838-.294.918-.595 3.002-.595 3.002l-1.556.01c.16-1.423.438-3.014 1.033-4.523l2.029-4.193h.004c.128-.244.22-.506.27-.778.047-.178.072-.361.074-.546 0-1.273-1.054-2.305-2.344-2.305-1.29 0-2.345 1.032-2.345 2.305 0 .593.245 1.4.245 1.4S6.312 8.08 6.312 12.593c0 3.094 1.517 5.391 2.144 6.137h7.05c.634-.761 2.134-3.048 2.134-6.121 0-2.948-1.49-5.268-2.524-6.524z" fill="#D2CEB4"/>
    <path opacity=".1" d="M17.639 12.61c0-2.12-.771-3.906-1.588-5.215 2.923 8.158-4.857 11.318-4.857 11.318l.443.017h3.87c.633-.76 2.132-3.047 2.132-6.12z" fill="#000"/>
    <path opacity=".2" d="M12.052 1.348c-.047-.003-.095-.015-.146-.015-1.295 0-2.344 1.032-2.344 2.305.001.127.01.254.027.38.021.122.026.25.062.367.225-1.61 1.492-2.784 2.401-3.037z" fill="#fff"/>
    <path opacity=".1" d="M10.84 13.678c.16-1.423.438-3.014 1.033-4.523l2.029-4.193h.004c.128-.244.22-.506.27-.778.047-.178.072-.361.074-.546a2.276 2.276 0 0 0-.83-1.745c1.375 2.762-4.679 7.399-2.58 11.785z" fill="#000"/>
    <path opacity=".2" d="M9.805 5.037S6.313 8.08 6.313 12.595c.004.929.143 1.853.411 2.742-.006-2.607.564-6.411 3.541-10.138 0 0-.2-.068-.46-.162z" fill="#fff"/>
    <path d="M15.977 18.64H7.975C3.982 18.64 4 21.324 4 21.324v1.342h15.952v-1.342s.018-2.686-3.975-2.686z" fill="#D2CEB4"/>
    <path opacity=".2" d="M4.377 20.154c.447-.724 1.428-1.517 3.598-1.517h8.002c2.104 0 3.09.745 3.556 1.45-.515-.189-2.214-.576-7.502-.576-6.029.002-7.392.506-7.654.643z" fill="#fff"/>
</svg>
