<svg width="24" height="24" fill="none" xmlns="http://www.w3.org/2000/svg">
    <path d="M17.602 13.33c-.695-.671-.732-1.707-2.208-1.713-1.138-.004-2.15-1.043-2.716-1.637l-.563-.652c-.22.263-.825 1.104-.556 2.04.082.28.21.547.377.788.303.442.73.832 1.236 1.241 1.086.88 2.987 2.401 3.194 4.483l.073 1.403s-10.312 1.043-10.312.15a6.98 6.98 0 0 0-.168-1.551c-.185-.894-1.219-3.908-1.219-5.543 0-6.156 4.156-8.859 7.87-9.11l1.9-1.896c.268 0 .546.285.62.601l.217 1.034c.22.536.582.9 1.142 1.362.56.462.706.9.829 1.219.443 1.127.478 1.725 1.246 2.841l1.72 2.418c.444.547.384 1.295-.09 1.697-.628.535-2.434.979-2.592.824z" fill="#D2CEB4"/>
    <path d="M7.32 18.53h8.291c4.138 0 4.12 2.758 4.12 2.758v1.379H3.2v-1.379s-.02-2.758 4.118-2.758z" fill="#D2CEB4"/>
    <path opacity=".3" d="m20.284 10.808-1.72-2.418c-.768-1.116-.803-1.714-1.246-2.841-.124-.318-.268-.755-.829-1.219-.561-.464-.923-.826-1.143-1.362l-.216-1.034a.849.849 0 0 0-.417-.549.823.823 0 0 0-.127-.019s-.799 1.9.38 2.633c2.268 1.41 1.855 3.139 2.512 4.016.326.435 2.624 3.271 3.069 3.82a1.268 1.268 0 0 0-.263-1.027z" fill="#fff"/>
    <path opacity=".1" d="M14.985 11.573c.135.03.272.045.409.047 1.476.007 1.512 1.043 2.207 1.712.037.035.166.036.342.014-.143-.245-.551-.694-.86-1.619-.5-1.506-.84-.8-2.098-.154zM11.221 7.788c-.265-.512-.32.448-.326.895-.006.411.256 1.557.647 2.586-.2-.896.363-1.687.574-1.94l.048.054-.015-.046s-.663-1.035-.928-1.549z" fill="#000"/>
    <path opacity=".3" d="M19.34 20.087c-.465-.743-1.48-1.557-3.728-1.557H7.319c-2.18 0-3.2.765-3.684 1.49.534-.194 2.294-.593 7.775-.593 6.245 0 7.659.518 7.93.66z" fill="#fff"/>
</svg>
