<svg width="24" height="24" fill="none" xmlns="http://www.w3.org/2000/svg">
    <path d="M20.788 8.108A4.667 4.667 0 0 0 17.4 6.76a6.452 6.452 0 0 0-3.466.891l-.43-1.871h1.717V3.16h-1.766V1.333h-2.65v1.778H9.039V5.75h1.718l-.43 1.871a6.452 6.452 0 0 0-3.466-.86 4.667 4.667 0 0 0-3.368 1.362 4.974 4.974 0 0 0-1.359 3.503c0 1.998 1.276 3.275 2.511 4.491a10.902 10.902 0 0 1 2.051 2.504c-2.05.535-2.05 1.924-2.05 3.514v.532h14.97v-.532c0-1.59 0-2.994-2.043-3.5a10.902 10.902 0 0 1 2.043-2.518c1.239-1.231 2.515-2.508 2.515-4.491a4.974 4.974 0 0 0-1.343-3.518zm-3.043 4.034c-.135.947-1.535 1.778-2.47 2.972-.472-.03-.749-.056-1.16-.071v-3.668s1.178-.842 2.125-.842c.008 0 1.73.06 1.505 1.61zm-9.731-1.61c.95 0 2.126.843 2.126.843v3.668c-.4 0-.689.041-1.16.07-.936-1.193-2.332-2.024-2.47-2.97-.207-1.55 1.504-1.61 1.504-1.61z" fill="#D1CEB7"/>
    <path opacity=".3" d="M13.055 3.549h2.167v-.438h-1.766l-.4.438zM19.392 20.073a2.059 2.059 0 0 0-.98-1.123 8.9 8.9 0 0 0-2.587-.546H8.463c-.753.036-1.5.161-2.223.374a2.161 2.161 0 0 0-1.37 1.295c.46-.202 2.062-.644 7.26-.644 5.2 0 6.801.43 7.262.644zM7.157 6.76H6.86a4.667 4.667 0 0 0-3.368 1.363 4.974 4.974 0 0 0-1.359 3.503c0 .864.253 1.71.726 2.433-1.074-3.298.685-6.715 4.297-7.299z" fill="#fff"/>
    <path opacity=".05" d="m20.788 8.108-.146-.143c.258.547 1.706 3.86-.465 6.034l-4.397 4.408h.045a9.757 9.757 0 0 1 1.804.285l.022-.034-.09-.022a10.905 10.905 0 0 1 2.055-2.52c1.239-1.23 2.515-2.507 2.515-4.49a4.974 4.974 0 0 0-1.343-3.518z" fill="#000"/>
    <path opacity=".3" d="M13.456 1.375v-.042h-2.65v1.778H9.04V5.75h.044l.397-.4V3.548h1.767V1.775h1.808l.4-.4z" fill="#fff"/>
</svg>
