<svg width="24" height="24" fill="none" xmlns="http://www.w3.org/2000/svg">
    <path d="M11.877 1.333A4.127 4.127 0 0 0 9.33 8.708l-2.138 1.416-.163.106v.195c0 .587.145 1.227.362 1.624h.386l1.816-.004c-.088 1.008-.359 3.477-3.59 5.516-1.446.911-2.273 2.642-2.27 4.746v.36h.36l15.642-.03h.495v-.393c-.003-2.105-.973-3.796-2.422-4.704-3.23-2.021-3.517-4.493-3.61-5.501l1.814-.004h.388c.216-.396.358-1.036.357-1.624v-.194l-.161-.107-2.145-1.412a4.127 4.127 0 0 0-2.574-7.365z" fill="#D2CEB4"/>
    <path opacity=".1" d="M14.618 6.952c-.991 1.402-2.929 1.736-2.929 1.736l2.392-.005c.03.027 1.69 1.588-.013 2.699l-6.908.013.004.034c.051.216.128.424.229.621h.386l1.815-.004c0 .02-.004.044-.005.064h.254s2.386 2.436 4.362 4.293c1.495 1.403 3.73 1.85 4.614 1.978a4.831 4.831 0 0 0-1.006-.841c-3.23-2.022-3.516-4.494-3.61-5.502l1.814-.004h.388c.216-.395.358-1.036.357-1.623v-.19l-.12-.085-.041-.028-2.15-1.41a4.127 4.127 0 0 0-1.138-7.102l-.026-.006c1.545.768 2.718 3.398 1.33 5.362z" fill="#000"/>
</svg>
