<svg width="24" height="24" fill="none" xmlns="http://www.w3.org/2000/svg">
    <path d="M20.528 5.727c-1.12 0-2.102.995-2.102 2.127 0 .43.196.825.343 1.06l-2.402 2.56-.28-5.908c.818-.273 1.406-1.09 1.406-2.006a2.206 2.206 0 0 0-2.228-2.228 2.232 2.232 0 0 0-2.228 2.228 2.122 2.122 0 0 0 .826 1.667l-1.739 5.01-.727-2.097-1.01-2.912a2.121 2.121 0 0 0 .825-1.668 2.231 2.231 0 0 0-2.228-2.228A2.205 2.205 0 0 0 6.756 3.56c0 .935.578 1.74 1.406 2.007L8.037 9.35l.187 4.716-1.348 4.338c-2.508.467-2.504 1.976-2.5 3.71v.552h15.495v-.552c.005-1.734.008-3.243-2.5-3.71l3.518-8.46c.934-.128 1.765-1.083 1.765-2.089a2.13 2.13 0 0 0-2.126-2.127z" fill="#D2CEB4"/>
    <path d="M3.727 5.727c1.12 0 2.103.995 2.103 2.127 0 .43-.197.825-.343 1.06l2.402 2.56.28-5.908c-.818-.273-1.407-1.09-1.407-2.006A2.205 2.205 0 0 1 8.99 1.332 2.232 2.232 0 0 1 11.22 3.56a2.123 2.123 0 0 1-.826 1.667l1.737 5.009.727-2.097 1.01-2.912a2.12 2.12 0 0 1-.824-1.667 2.232 2.232 0 0 1 2.228-2.228A2.205 2.205 0 0 1 17.5 3.56c0 .935-.577 1.74-1.406 2.007l.125 3.78-.143 5.32 1.301 3.735c2.509.467 2.505 1.976 2.5 3.71v.553H4.384v-.552c-.004-1.734-.008-3.243 2.5-3.71l-3.518-8.46C2.432 9.815 1.6 8.86 1.6 7.854a2.13 2.13 0 0 1 2.127-2.127z" fill="#D2CEB4"/>
    <path opacity=".1" d="M22.655 7.854c.001-.483-.164-.95-.466-1.327.172.664-.24 1.528-.597 1.861-.45.42-1.2.504-1.479 1.142 0 0-1.666 3.388-3.958 5.868-2.4 2.598-4.014 2.819-4.014 2.819l5.237.17L20.89 9.94c.934-.123 1.765-1.08 1.765-2.087z" fill="#000"/>
    <path opacity=".3" d="M21.028 5.788a2.12 2.12 0 0 0-.5-.061c-1.12 0-2.102.995-2.102 2.127 0 .326.113.632.232.864.093-1.845 1.495-2.757 2.37-2.93zM9.313 1.359a2.213 2.213 0 0 0-2.279 3.27c.25-1.893 1.373-2.959 2.279-3.27zM15.68 1.37a2.232 2.232 0 0 0-2.644 2.19c.002.362.097.718.277 1.032.252-1.955 1.47-3.001 2.367-3.221zM2.192 8.148a2.732 2.732 0 0 1 1.46-2.418A2.105 2.105 0 0 0 1.6 7.84c0 .783.449 1.434 1.028 1.823a2.702 2.702 0 0 1-.436-1.515z" fill="#fff"/>
</svg>
